#N canvas 268 160 1506 707 10;
#X obj 304 186 r notesIn-\$1;
#X obj 304 491 s notesOut-\$1;
#X obj 25 186 inlet~ inL-\$1;
#X obj 135 186 inlet~ inR-\$1;
#X obj 27 491 outlet~ outL-\$1;
#X obj 136 491 outlet~ outR-\$1;
#X obj 603 186 r auxIn-\$1;
#X obj 602 209 r expIn-\$1;
#X obj 602 234 r fsIn-\$1;
#N canvas 4 50 1912 1017 sequencer 0;
#N canvas 670 69 450 300 press-n-hold 0;
#X obj 135 147 f;
#X obj 135 94 sel 1;
#X obj 120 54 t f f;
#X obj 135 173 sel 1;
#X obj 135 119 del 500;
#X obj 108 7 inlet;
#X obj 131 225 outlet;
#X text 184 17 aux button in;
#X text 200 213 bang if held for 1/2 second;
#X connect 0 0 3 0;
#X connect 1 0 4 0;
#X connect 2 0 1 0;
#X connect 2 1 0 1;
#X connect 3 0 6 0;
#X connect 4 0 0 0;
#X connect 5 0 2 0;
#X restore 954 160 pd press-n-hold;
#X text 126 519 check every quater note how many sounding;
#X msg 97 605 0;
#X obj 171 665 + 1;
#X obj 51 709 i, f 4;
#X obj 171 637 i 0;
#X obj 51 519 t b b b;
#X obj 991 765 delay 100;
#X obj 825 640 delay 100;
#X obj 906 632 sel 0 1 2 3;
#X obj 781 718 delay 300;
#X obj 906 666 b;
#X obj 991 684 b;
#X obj 77 741 s pb-\$1-number-playing-local;
#X obj 74 550 s pb-\$1-are-you-playing, f 21;
#X obj 171 590 r pb-\$1-i-am-playing;
#X obj 954 214 s pb-\$1-cancel;
#X msg 813 693 1;
#X msg 781 742 0;
#X msg 825 663 0;
#X msg 882 727 6;
#X msg 991 788 0;
#X msg 1025 728 7;
#X obj 781 535 r pb-\$1-cancel;
#X obj 906 552 sel 0;
#X obj 631 110 s pb-\$1-note-len-local;
#X obj 480 110 s pb-\$1-div-local;
#X msg 825 590 stop;
#X obj 906 466 spigot 0;
#X obj 944 297 r pb-\$1-notes-in;
#X obj 944 319 stripnote;
#X msg 944 367 1;
#X obj 781 566 t b b b, f 13;
#X msg 869 589 0;
#X obj 478 191 s pb-\$1-vel-local;
#X obj 911 389 tgl 15 0 empty empty empty 17 7 0 10 -262144 -1 -1 1
1;
#X obj 911 273 sel 1;
#X obj 781 590 t b b;
#X obj 51 496 spigot;
#X msg 109 468 0;
#X msg 90 373 1;
#X obj 109 448 t b b;
#X obj 109 426 r pb-\$1-disable;
#X obj 90 351 r pb-\$1-enable;
#X obj 90 395 t f f;
#X obj 911 135 spigot;
#X msg 950 100 0;
#X msg 1064 80 1;
#X obj 950 80 t b b;
#X obj 950 58 r pb-\$1-disable;
#X obj 1064 58 r pb-\$1-enable;
#X obj 51 65 pb-notes 0 \$1;
#X obj 976 367 s pb-\$1-check-it;
#X obj 51 321 r pb-\$1-check-it;
#X obj 944 344 t b b;
#X obj 933 240 s pb-\$1-check-it;
#X obj 286 388 s pb-\$1-check-it;
#X text 442 323 when page changes print;
#X msg 939 886 0;
#X msg 1053 866 1;
#X obj 939 866 t b b;
#X obj 939 844 r pb-\$1-disable;
#X obj 1053 844 r pb-\$1-enable;
#X obj 880 917 spigot 1;
#X obj 759 349 r pb-\$1-disable;
#X msg 759 371 0;
#X obj 248 321 r pb-\$1-enable;
#X obj 248 343 del 100;
#X obj 478 147 r pb_note_vel-\$1;
#X obj 480 50 r pb_div-\$1;
#X obj 631 52 r pb_note_len-\$1;
#X obj 911 34 r auxIn-\$1;
#X msg 56 869 [ 0 ] Notes Latched;
#X obj 781 50 r loadbang-\$1;
#X obj 784 101 s pb-\$1-enable;
#X obj 784 77 tgl 15 0 empty empty empty 17 7 0 10 -262144 -1 -1 1
1;
#X obj 345 323 r page-ready-\$1;
#X obj 906 585 counter-up 4 \$1;
#X obj 275 65 pb-notes 16 \$1;
#X obj 275 92 pb-notes 17 \$1;
#X obj 275 254 pb-notes 23 \$1;
#X obj 51 92 pb-notes 1 \$1;
#X obj 51 119 pb-notes 2 \$1;
#X obj 51 146 pb-notes 3 \$1;
#X obj 51 173 pb-notes 4 \$1;
#X obj 51 200 pb-notes 5 \$1;
#X obj 51 227 pb-notes 6 \$1;
#X obj 51 254 pb-notes 7 \$1;
#X obj 159 254 pb-notes 15 \$1;
#X obj 159 227 pb-notes 14 \$1;
#X obj 159 200 pb-notes 13 \$1;
#X obj 159 173 pb-notes 12 \$1;
#X obj 159 146 pb-notes 11 \$1;
#X obj 159 119 pb-notes 10 \$1;
#X obj 159 92 pb-notes 9 \$1;
#X obj 159 65 pb-notes 8 \$1;
#X obj 275 119 pb-notes 18 \$1;
#X obj 275 146 pb-notes 19 \$1;
#X obj 275 173 pb-notes 20 \$1;
#X obj 275 200 pb-notes 21 \$1;
#X obj 275 227 pb-notes 22 \$1;
#X obj 57 770 t b f;
#X msg 84 807 set [ \$1 ] Notes Latched \;;
#X obj 60 906 s aux-label-\$1;
#X obj 880 943 s aux-led-\$1;
#X obj 1145 530 t f f;
#X obj 885 431 r beat-clock;
#N canvas 4 50 1208 761 clock-div 0;
#X floatatom 299 142 5 0 0 0 - - -;
#X obj 134 163 t b f;
#X obj 271 391 t b;
#X obj 175 357 t b;
#X obj 175 323 sel 0;
#X obj 454 388 t b;
#X obj 454 354 sel 0 120 240;
#X obj 576 400 t b;
#X obj 219 234 route 1 2 3 4 5, f 99;
#X obj 805 387 t b;
#X obj 802 350 sel 0 72 144 216 288;
#X obj 575 352 sel 0 180;
#X obj 638 351 sel 90;
#X obj 683 352 sel 270;
#X obj 271 357 sel 0;
#X obj 309 391 t b;
#X obj 309 357 sel 180;
#X obj 454 141 * 90;
#X obj 454 177 + 180;
#X obj 454 105 / 100;
#X obj 454 203 i;
#X obj 614 139 * 45;
#X obj 615 201 i;
#X obj 657 200 i;
#X obj 615 175 + 90;
#X obj 657 174 + 270;
#X obj 454 75 inlet;
#X obj 302 84 inlet;
#X obj 57 55 inlet;
#X text 105 50 0-359 beat clock;
#X text 287 52 beat div 1-4;
#X obj 206 209 pack 4 0;
#X text 505 53 swing percent \, only applied to beat div 2 and 4;
#X obj 264 626 outlet;
#X text 327 630 ticks out;
#X obj 123 116 i;
#X connect 0 0 31 0;
#X connect 1 0 31 0;
#X connect 1 1 31 1;
#X connect 2 0 33 0;
#X connect 3 0 33 0;
#X connect 4 0 3 0;
#X connect 5 0 33 0;
#X connect 6 0 5 0;
#X connect 6 1 5 0;
#X connect 6 2 5 0;
#X connect 7 0 33 0;
#X connect 8 0 4 0;
#X connect 8 1 14 0;
#X connect 8 1 16 0;
#X connect 8 2 6 0;
#X connect 8 3 11 0;
#X connect 8 3 12 0;
#X connect 8 3 13 0;
#X connect 8 4 10 0;
#X connect 9 0 33 0;
#X connect 10 0 9 0;
#X connect 10 1 9 0;
#X connect 10 2 9 0;
#X connect 10 3 9 0;
#X connect 10 4 9 0;
#X connect 11 0 7 0;
#X connect 11 1 7 0;
#X connect 12 0 7 0;
#X connect 13 0 7 0;
#X connect 14 0 2 0;
#X connect 15 0 33 0;
#X connect 16 0 15 0;
#X connect 17 0 18 0;
#X connect 18 0 20 0;
#X connect 19 0 17 0;
#X connect 19 0 21 0;
#X connect 20 0 16 1;
#X connect 21 0 24 0;
#X connect 21 0 25 0;
#X connect 22 0 12 1;
#X connect 23 0 13 1;
#X connect 24 0 22 0;
#X connect 25 0 23 0;
#X connect 26 0 19 0;
#X connect 27 0 0 0;
#X connect 28 0 35 0;
#X connect 31 0 8 0;
#X connect 35 0 1 0;
#X restore 1110 631 pd clock-div;
#X obj 1161 565 r pb_beat-\$1;
#X obj 1220 593 r pb_swing-\$1;
#X obj 1128 671 s pb-\$1-ticks;
#X floatatom 1226 625 5 0 0 0 - - -;
#X obj 1096 684 bng 15 50 10 0 empty empty empty 17 7 0 10 -262144
-1 -1;
#X obj 1344 285 s pb-\$1-get-state;
#X obj 1331 315 r pb-\$1-voice-status;
#X obj 1360 218 bng 15 250 50 0 empty empty empty 17 7 0 10 -262144
-1 -1;
#X obj 1361 248 t b b;
#X msg 1519 292 clear;
#X obj 1385 377 textfile;
#X msg 1233 307 read test;
#X obj 1206 376 until;
#X msg 1204 348 24;
#X msg 1150 310 rewind;
#X obj 1385 407 unpack 0 0 0 0;
#X obj 1590 355 s pb-\$1-cancel;
#X obj 1620 291 bng 15 250 50 0 empty empty empty 17 7 0 10 -262144
-1 -1;
#X obj 1420 491 s pb-\$1-vel-local;
#X obj 1440 465 s pb-\$1-div-local;
#X obj 1449 842 pack 12 0;
#X floatatom 1449 884 5 0 0 0 - - -;
#X obj 1449 863 route 12;
#X floatatom 1501 815 5 0 0 0 - - -;
#X obj 1451 790 bng 15 250 50 0 empty empty empty 17 7 0 10 -262144
-1 -1;
#X obj 1353 707 s pb-\$1-start-stop;
#X obj 1478 710 s pb-\$1-recall-count;
#X obj 1453 614 i;
#X obj 1389 455 t f f;
#X obj 1386 513 f;
#X obj 1343 467 t b f;
#X obj 1370 617 i;
#X obj 1386 534 > 0;
#X obj 1392 558 sel 1;
#X obj 1350 675 pack 0 1;
#X text 1436 584 start it up if saved velocity > 0;
#X obj 1388 581 t b b;
#X obj 1442 648 pack 0 1;
#X obj 1360 645 t f f;
#X connect 0 0 16 0;
#X connect 0 0 55 0;
#X connect 2 0 5 1;
#X connect 2 0 4 1;
#X connect 3 0 5 1;
#X connect 3 0 4 1;
#X connect 4 0 13 0;
#X connect 4 0 101 0;
#X connect 5 0 3 0;
#X connect 6 0 4 0;
#X connect 6 1 14 0;
#X connect 6 2 2 0;
#X connect 7 0 21 0;
#X connect 8 0 19 0;
#X connect 9 0 11 0;
#X connect 9 1 12 0;
#X connect 9 2 12 0;
#X connect 9 3 12 0;
#X connect 10 0 18 0;
#X connect 11 0 8 0;
#X connect 11 0 20 0;
#X connect 12 0 7 0;
#X connect 12 0 22 0;
#X connect 15 0 5 0;
#X connect 17 0 63 0;
#X connect 18 0 63 0;
#X connect 19 0 63 0;
#X connect 20 0 63 0;
#X connect 21 0 63 0;
#X connect 22 0 63 0;
#X connect 23 0 32 0;
#X connect 24 0 77 0;
#X connect 27 0 8 0;
#X connect 27 0 7 0;
#X connect 28 0 24 0;
#X connect 28 0 105 0;
#X connect 29 0 30 0;
#X connect 30 0 54 0;
#X connect 31 0 35 0;
#X connect 32 0 37 0;
#X connect 32 1 27 0;
#X connect 32 2 33 0;
#X connect 33 0 28 1;
#X connect 35 0 28 1;
#X connect 36 0 35 0;
#X connect 37 0 10 0;
#X connect 37 1 17 0;
#X connect 38 0 6 0;
#X connect 39 0 38 1;
#X connect 40 0 44 0;
#X connect 41 0 39 0;
#X connect 42 0 41 0;
#X connect 43 0 40 0;
#X connect 44 0 38 1;
#X connect 45 0 36 0;
#X connect 45 0 0 0;
#X connect 46 0 45 1;
#X connect 47 0 45 1;
#X connect 48 0 46 0;
#X connect 49 0 48 0;
#X connect 50 0 47 0;
#X connect 53 0 38 0;
#X connect 54 0 31 0;
#X connect 54 1 52 0;
#X connect 58 0 63 1;
#X connect 59 0 63 1;
#X connect 60 0 58 0;
#X connect 61 0 60 0;
#X connect 62 0 59 0;
#X connect 63 0 104 0;
#X connect 64 0 65 0;
#X connect 65 0 35 0;
#X connect 66 0 67 0;
#X connect 67 0 56 0;
#X connect 68 0 34 0;
#X connect 69 0 26 0;
#X connect 70 0 25 0;
#X connect 71 0 45 0;
#X connect 72 0 103 0;
#X connect 73 0 75 0;
#X connect 75 0 74 0;
#X connect 76 0 56 0;
#X connect 77 0 9 0;
#X connect 101 0 72 0;
#X connect 101 1 102 0;
#X connect 102 0 72 0;
#X connect 105 0 107 0;
#X connect 106 0 28 0;
#X connect 107 0 110 0;
#X connect 107 0 112 0;
#X connect 108 0 107 1;
#X connect 108 0 111 0;
#X connect 109 0 107 2;
#X connect 109 0 111 0;
#X connect 114 0 118 0;
#X connect 115 0 116 0;
#X connect 116 0 113 0;
#X connect 116 1 117 0;
#X connect 117 0 118 0;
#X connect 118 0 123 0;
#X connect 119 0 118 0;
#X connect 120 0 118 0;
#X connect 121 0 120 0;
#X connect 122 0 118 0;
#X connect 123 0 138 0;
#X connect 123 1 136 0;
#X connect 123 2 127 0;
#X connect 123 3 135 1;
#X connect 125 0 124 0;
#X connect 128 0 130 0;
#X connect 130 0 129 0;
#X connect 131 0 128 1;
#X connect 132 0 128 0;
#X connect 135 0 145 1;
#X connect 136 0 137 1;
#X connect 136 1 126 0;
#X connect 137 0 140 0;
#X connect 138 0 137 0;
#X connect 138 1 139 1;
#X connect 139 0 146 0;
#X connect 140 0 141 0;
#X connect 141 0 144 0;
#X connect 142 0 133 0;
#X connect 144 0 139 0;
#X connect 144 1 135 0;
#X connect 145 0 134 0;
#X connect 146 0 142 0;
#X connect 146 1 145 0;
#X restore 306 326 pd sequencer;
#X obj 304 288 s pb-\$1-notes-in;
#X obj 305 358 r pb-\$1-notes-out;
#X obj 498 185 r ctrlIn-\$1;
#X obj 498 490 s ctrlOut-\$1;
#X obj 305 393 list append 0;
#X obj 949 203 sel \$1;
#X obj 987 175 unpack s s;
#X obj 987 30 r activePage;
#X obj 999 266 &&;
#X msg 1050 233 1;
#X msg 1093 233 0;
#X msg 932 233 1;
#X msg 975 233 0;
#X text 1056 298 page and module is active;
#X obj 1111 413 bng 15 250 50 0 empty empty empty 17 7 0 10 -262144
-1 -1;
#X obj 984 419 unpack 0 0;
#X obj 984 441 + 1;
#X obj 984 463 pack 0 0;
#X obj 1183 407 del 20;
#X obj 1183 385 r loadbang-\$1;
#X obj 854 319 r ppb-tracker-\$1;
#X obj 991 324 sel 1;
#X obj 1141 456 spigot 0;
#X obj 1050 203 sel pg_graphics;
#X obj 984 490 cg-print-kb 100 \$1;
#X obj 304 207 list split 2;
#X obj 987 53 t b a;
#X obj 998 128 list;
#X obj 987 76 del 500;
#X obj 999 289 t f f f f;
#X connect 0 0 35 0;
#X connect 11 0 14 0;
#X connect 14 0 1 0;
#X connect 15 0 21 0;
#X connect 15 1 22 0;
#X connect 16 0 15 0;
#X connect 16 1 33 0;
#X connect 17 0 36 0;
#X connect 18 0 39 0;
#X connect 19 0 18 1;
#X connect 20 0 18 1;
#X connect 21 0 18 0;
#X connect 22 0 18 0;
#X connect 24 0 34 1;
#X connect 25 0 26 0;
#X connect 25 1 27 1;
#X connect 26 0 27 0;
#X connect 27 0 34 0;
#X connect 28 0 32 0;
#X connect 29 0 28 0;
#X connect 30 0 25 0;
#X connect 31 0 32 0;
#X connect 32 0 34 1;
#X connect 33 0 19 0;
#X connect 33 1 20 0;
#X connect 35 0 10 0;
#X connect 36 0 38 0;
#X connect 36 1 37 1;
#X connect 37 0 16 0;
#X connect 38 0 37 0;
#X connect 39 0 31 0;
#X connect 39 1 34 2;
#X connect 39 2 32 1;
