#N canvas 288 94 1491 737 10;
#X obj 304 186 r notesIn-\$1;
#X obj 299 491 s notesOut-\$1;
#X obj 25 186 inlet~ inL-\$1;
#X obj 135 186 inlet~ inR-\$1;
#X obj 27 491 outlet~ outL-\$1;
#X obj 136 491 outlet~ outR-\$1;
#X obj 464 185 r auxIn-\$1;
#X obj 603 178 r expIn-\$1;
#X obj 603 203 r fsIn-\$1;
#N canvas 49 50 1516 856 sequencer 1;
#X obj 469 444 tgl 15 0 empty empty empty 17 7 0 10 -262144 -1 -1 0
1;
#N canvas 270 72 1049 972 seqplayer 0;
#X obj 329 631 t b f;
#X obj 208 219 stripnote;
#X obj 92 75 tgl 15 0 empty empty empty 17 7 0 10 -262144 -1 -1 1 1
;
#X obj 360 673 == 15;
#X obj 490 872 + 60;
#X obj 490 921 pack 0 100;
#X obj 275 61 inlet;
#X obj 92 50 inlet;
#X obj 590 71 inlet;
#X obj 495 550 - 1;
#X obj 490 942 outlet;
#X obj 820 77 inlet;
#X text 84 18 enable;
#X text 327 63 note;
#X text 592 47 length;
#X obj 326 179 unpack;
#X obj 357 452 tgl 15 0 empty empty empty 17 7 0 10 -262144 -1 -1 1
1;
#X obj 275 298 f;
#X obj 345 242 sel 0;
#X obj 374 264 bang;
#X msg 375 287 1;
#X obj 208 176 t a a;
#X obj 331 208 swap;
#X obj 330 292 f;
#X obj 300 269 t b b;
#X obj 298 322 ==;
#X obj 490 897 - 60;
#X obj 444 825 moses 1;
#X text 517 846 filter out notes that are 0;
#X obj 444 765 t f f, f 14;
#X obj 557 796 tabread \$0-seqvel;
#X obj 444 797 tabread \$0-seq;
#X obj 313 599 counter-up 16 \$1;
#X floatatom 168 489 5 0 0 0 - - -;
#X obj 307 523 spigot 0;
#X obj 313 570 t b;
#X obj 222 349 sel 0;
#X msg 222 370 0;
#X text 213 488 transpose;
#X text 867 74 tick, f 6;
#X obj 213 144 spigot 0;
#X obj 332 404 f;
#X obj 265 843 s \$0-end;
#X obj 303 745 sel 1;
#X obj 331 332 r \$0-end;
#X text 361 354 let if finish;
#X obj 281 344 sel 1;
#X msg 294 373 0;
#X obj 208 251 t f f b;
#X connect 0 1 3 0;
#X connect 0 1 29 0;
#X connect 1 0 48 0;
#X connect 2 0 36 0;
#X connect 2 0 40 1;
#X connect 3 0 43 0;
#X connect 4 0 26 0;
#X connect 5 0 10 0;
#X connect 6 0 40 0;
#X connect 7 0 2 0;
#X connect 8 0 9 0;
#X connect 8 0 32 2;
#X connect 9 0 3 1;
#X connect 11 0 34 0;
#X connect 15 0 22 0;
#X connect 15 1 22 1;
#X connect 16 0 34 1;
#X connect 17 0 25 0;
#X connect 18 0 24 0;
#X connect 18 1 19 0;
#X connect 19 0 20 0;
#X connect 20 0 16 0;
#X connect 20 0 41 1;
#X connect 21 0 1 0;
#X connect 21 1 15 0;
#X connect 22 0 18 0;
#X connect 22 1 23 1;
#X connect 23 0 25 1;
#X connect 24 0 17 0;
#X connect 24 1 23 0;
#X connect 25 0 46 0;
#X connect 26 0 5 0;
#X connect 27 1 4 0;
#X connect 29 0 31 0;
#X connect 29 1 30 0;
#X connect 30 0 5 1;
#X connect 31 0 27 0;
#X connect 32 0 0 0;
#X connect 33 0 4 1;
#X connect 34 0 35 0;
#X connect 35 0 32 0;
#X connect 36 0 37 0;
#X connect 37 0 16 0;
#X connect 40 0 21 0;
#X connect 41 0 16 0;
#X connect 43 0 42 0;
#X connect 44 0 41 0;
#X connect 46 0 47 0;
#X connect 47 0 41 1;
#X connect 48 0 17 1;
#X connect 48 1 33 0;
#X connect 48 2 32 1;
#X restore 133 522 pd seqplayer;
#X obj 41 413 tgl 15 0 empty empty empty 17 7 0 10 -262144 -1 -1 1
1;
#N canvas 708 386 1208 658 states 0;
#X obj 209 279 f;
#X obj 209 226 sel 1;
#X obj 131 242 sel 1;
#X obj 209 186 t f f, f 12;
#X obj 209 305 sel 1;
#X text 537 82 Controls LED & Screen Infomation:;
#X obj 209 251 del 500;
#X text 104 4 Controls State With Aux Button;
#X msg 622 216 1;
#X msg 209 339 1;
#X msg 222 450 0;
#X obj 131 415 sel 0 1 2, f 27;
#X text 528 11 states are: 0 = play mode \, 1 = punch in \, 2 = play
w latch, f 70;
#X obj 530 172 sel 0 1 2, f 53;
#X msg 131 458 2;
#X msg 311 465 0;
#X msg 539 220 0;
#X msg 862 227 2;
#X msg 530 301 Aux: Play Mode;
#X msg 714 293 Aux: Punch Mode;
#X msg 894 303 Aux: Play Mode Latch;
#X obj 131 27 r punchy-\$1-aux-in;
#X obj 209 367 s \$0-state;
#X obj 131 301 v \$0-state;
#X obj 403 198 r \$0-state;
#X obj 402 220 v \$0-state;
#X obj 530 130 r \$0-state;
#X obj 131 489 s \$0-state;
#X obj 222 490 s \$0-state;
#X obj 309 500 s \$0-state;
#X obj 539 244 s punchy-\$1-led;
#X obj 863 252 s punchy-\$1-led;
#X obj 656 256 s punchy-\$1-led;
#X obj 634 387 s punchy-\$1-aux-label;
#X connect 0 0 4 0;
#X connect 1 0 6 0;
#X connect 2 0 23 0;
#X connect 3 0 1 0;
#X connect 3 1 0 1;
#X connect 4 0 9 0;
#X connect 6 0 0 0;
#X connect 8 0 32 0;
#X connect 9 0 22 0;
#X connect 10 0 28 0;
#X connect 11 0 14 0;
#X connect 11 1 10 0;
#X connect 11 2 15 0;
#X connect 13 0 16 0;
#X connect 13 0 18 0;
#X connect 13 1 8 0;
#X connect 13 1 19 0;
#X connect 13 2 17 0;
#X connect 13 2 20 0;
#X connect 14 0 27 0;
#X connect 15 0 29 0;
#X connect 16 0 30 0;
#X connect 17 0 31 0;
#X connect 18 0 33 0;
#X connect 19 0 33 0;
#X connect 20 0 33 0;
#X connect 21 0 3 0;
#X connect 21 0 2 0;
#X connect 23 0 11 0;
#X connect 24 0 25 0;
#X connect 26 0 13 0;
#X restore 929 31 pd states;
#X msg 469 409 0;
#X msg 505 410 1;
#X msg 41 369 1;
#X msg 87 370 0;
#X obj 469 366 sel 0 1 2;
#X obj 41 336 sel 0 1 2;
#X msg 131 369 1;
#X msg 540 409 0;
#X obj 936 208 t f b;
#X obj 133 643 makenote 100 100;
#X text 1001 32 states are: 0 = play mode \, 1 = punch in \, 2 = play
w latch, f 70;
#N canvas 39 50 919 857 seqpuncher 0;
#X obj 220 132 tgl 15 0 empty empty empty 17 7 0 10 -262144 -1 -1 0
1;
#X obj 351 334 spigot 0;
#X obj 401 264 t f b;
#X obj 444 566 sel 1;
#X obj 321 169 t f f;
#X obj 321 138 stripnote;
#X obj 444 627 outlet;
#X obj 321 107 inlet;
#X obj 220 103 inlet;
#X text 544 263 writes notes to sequence;
#X text 508 577 bang at end, f 12;
#X obj 654 136 inlet;
#X obj 556 421 - 1;
#X text 647 104 len;
#X obj 631 618 outlet;
#X text 674 593 len, f 4;
#X obj 631 589 + 1;
#X obj 145 465 f;
#X obj 338 443 t b f b;
#X obj 188 778 outlet;
#X obj 188 731 swap;
#X obj 188 753 pack;
#X obj 391 628 + 1;
#X obj 251 547 tabwrite \$0-seq;
#X obj 82 639 tabwrite \$0-seqvel;
#X msg 391 659 Punching \$1;
#X obj 391 692 s punchy-\$1-aux-label;
#X obj 143 343 r punchy_velo-\$1;
#X obj 399 480 counter-up 64 \$1;
#X obj 444 540 == 63;
#X connect 0 0 2 0;
#X connect 1 0 18 0;
#X connect 2 0 1 1;
#X connect 2 1 28 1;
#X connect 3 0 6 0;
#X connect 4 0 1 0;
#X connect 5 0 4 0;
#X connect 7 0 5 0;
#X connect 8 0 0 0;
#X connect 11 0 12 0;
#X connect 11 0 28 2;
#X connect 12 0 29 1;
#X connect 16 0 14 0;
#X connect 17 0 20 0;
#X connect 17 0 24 0;
#X connect 18 0 17 0;
#X connect 18 1 20 1;
#X connect 18 1 23 0;
#X connect 18 2 28 0;
#X connect 20 0 21 0;
#X connect 20 1 21 1;
#X connect 21 0 19 0;
#X connect 22 0 25 0;
#X connect 25 0 26 0;
#X connect 27 0 17 1;
#X connect 28 0 16 0;
#X connect 28 0 22 0;
#X connect 28 0 23 1;
#X connect 28 0 24 1;
#X connect 28 0 29 0;
#X connect 29 0 3 0;
#X restore 469 491 pd seqpuncher;
#X text 1183 427 seq saving and recalling;
#X text 902 75 up to 32 notes long \, len is stashed as last entry
;
#X text 873 160 stash length as last entry;
#X obj 133 611 unpack, f 8;
#X obj 133 668 pack, f 16;
#X obj 133 700 s punchy-\$1-notes-out;
#X obj 187 462 r \$0-len;
#N canvas 757 99 886 799 latch 0;
#X obj 43 421 latch-notes;
#X obj 263 252 tgl 15 0 empty empty empty 17 7 0 10 -262144 -1 -1 1
1;
#X obj 123 368 spigot 1;
#X obj 43 368 spigot 0;
#X obj 263 278 == 0;
#X obj 263 368 sel 0 1;
#X obj 263 134 inlet;
#X obj 43 626 outlet;
#X obj 43 106 inlet;
#X text 44 53 incoming notes get sent through latch if enabled \, or
directly to output if disabled;
#X text 323 367 Update Screen & LED;
#X msg 286 458 Aux: Latch OFF \;;
#X msg 263 579 Aux: Latch ON \;;
#X text 311 135 1-0 enable / disables latch;
#X obj 263 160 t f b, f 7;
#X obj 309 314 b;
#X msg 298 408 0;
#X msg 289 534 2;
#X obj 448 672 s punchy-\$1-aux-label, f 27;
#X obj 385 559 s punchy-\$1-led;
#X connect 0 0 7 0;
#X connect 1 0 4 0;
#X connect 1 0 3 1;
#X connect 2 0 7 0;
#X connect 3 0 0 0;
#X connect 4 0 2 1;
#X connect 4 0 5 0;
#X connect 5 0 12 0;
#X connect 5 0 17 0;
#X connect 5 1 11 0;
#X connect 5 1 16 0;
#X connect 6 0 14 0;
#X connect 8 0 3 0;
#X connect 8 0 2 0;
#X connect 11 0 18 0;
#X connect 12 0 18 0;
#X connect 14 0 1 0;
#X connect 14 1 15 0;
#X connect 15 0 0 1;
#X connect 16 0 19 0;
#X connect 17 0 19 0;
#X restore 160 408 pd latch;
#X msg 275 318 0;
#X obj 229 284 sel 0 1 2;
#X msg 316 320 1;
#X msg 229 317 0;
#X obj 229 358 tgl 15 0 empty empty empty 17 7 0 10 -262144 -1 -1 1
1;
#X obj 229 262 r \$0-state;
#X obj 41 314 r \$0-state;
#X obj 477 519 s \$0-state;
#X obj 557 520 s \$0-len;
#X obj 469 335 r \$0-state;
#X obj 936 182 r \$0-len;
#X obj 921 265 tabwrite \$0-seq;
#X obj 222 615 r punchy_length-\$1;
#X obj 901 100 table \$0-seq 65;
#X obj 902 124 table \$0-seqvel 65;
#X msg 972 233 64;
#X obj 848 472 list;
#X obj 1036 616 print sequence;
#X msg 856 667 read \$1/presets/\$2/\$3-punchy-seqvel.txt;
#X msg 1112 582 write \$1/presets/\$2/\$3-punchy-seq.txt;
#X msg 1112 665 write \$1/presets/\$2/\$3-punchy-seqvel.txt;
#X msg 817 582 read \$1/presets/\$2/\$3-punchy-seq.txt;
#X obj 1016 643 s \$0-seq;
#X obj 989 714 s \$0-seqvel;
#X obj 1119 403 r rackSavePreset;
#N canvas 100 635 803 448 presetDir 0;
#X obj 88 153 s rackMsgs;
#X obj 88 106 symbol \$1;
#X msg 88 128 getsetting currentPreset Defaut rackCurrentPreset-\$1
;
#X obj 88 181 r rackCurrentPreset;
#X obj 215 181 r rackCurrentPreset-\$1;
#X obj 87 215 symbol \$1;
#X obj 442 163 s rackMsgs;
#X obj 442 113 symbol \$1;
#X obj 204 50 r loadbang-\$1;
#X obj 442 186 r rackDataDir;
#X obj 535 189 r rackDataDir-\$1;
#X msg 442 138 getsetting dataDir ./data rackDataDir-\$1;
#X obj 441 219 symbol \$1;
#X obj 249 276 pack s s s;
#X obj 255 210 symbol \$1;
#X obj 205 76 t b b b;
#X obj 444 71 bng 15 250 50 0 empty empty empty 17 7 0 10 -262144 -1
-1;
#X obj 71 67 bng 15 250 50 0 empty empty empty 17 7 0 10 -262144 -1
-1;
#X obj 114 243 t b b s;
#X obj 255 232 t b s;
#X obj 111 387 outlet;
#X obj 219 386 outlet;
#X text 81 25 track preset directory and bang on change;
#X connect 1 0 2 0;
#X connect 2 0 0 0;
#X connect 3 0 5 0;
#X connect 4 0 5 0;
#X connect 5 0 18 0;
#X connect 7 0 11 0;
#X connect 8 0 15 0;
#X connect 9 0 12 0;
#X connect 10 0 12 0;
#X connect 11 0 6 0;
#X connect 12 0 13 0;
#X connect 13 0 21 0;
#X connect 14 0 19 0;
#X connect 15 0 1 0;
#X connect 15 1 14 0;
#X connect 15 2 7 0;
#X connect 16 0 7 0;
#X connect 17 0 1 0;
#X connect 18 0 20 0;
#X connect 18 1 13 0;
#X connect 18 2 13 1;
#X connect 19 0 13 0;
#X connect 19 1 13 2;
#X restore 940 408 pd presetDir;
#N canvas 103 262 721 484 savePreset 0;
#X obj 343 124 r saveState;
#X obj 252 232 list;
#X obj 146 127 unpack s s s;
#X obj 251 167 pack s s s;
#X obj 272 127 symbol \$1;
#X obj 113 96 list;
#X obj 233 101 t b b a b;
#X obj 106 54 inlet;
#X obj 258 286 outlet;
#X obj 229 39 inlet;
#X connect 0 0 1 0;
#X connect 1 0 8 0;
#X connect 2 0 3 0;
#X connect 2 2 3 2;
#X connect 3 0 1 1;
#X connect 4 0 3 1;
#X connect 5 0 2 0;
#X connect 6 0 1 0;
#X connect 6 1 3 0;
#X connect 6 2 4 0;
#X connect 6 3 5 0;
#X connect 7 0 5 1;
#X connect 9 0 6 0;
#X restore 1051 468 pd savePreset;
#X obj 747 612 tabread \$0-seq;
#X obj 747 640 s \$0-len;
#X msg 749 573 64;
#X text 1195 449 save when preset saved;
#X msg 818 -227 stop;
#X msg 693 -215 arm;
#X obj 507 -178 seq-format-event note;
#X msg 914 -227 play-sync;
#N canvas 10 50 468 388 flush-stuck-notes 0;
#X obj 167 212 bag;
#X msg 203 161 flush;
#X msg 160 254 \$1 0;
#X obj 124 157 t a a;
#X obj 137 354 outlet;
#X obj 101 22 inlet;
#X obj 258 20 inlet;
#X obj 238 107 bang;
#X obj 114 102 route note;
#X obj 248 61 route end stop;
#X connect 0 0 2 0;
#X connect 1 0 0 0;
#X connect 2 0 4 0;
#X connect 3 0 4 0;
#X connect 3 1 0 0;
#X connect 5 0 8 0;
#X connect 6 0 9 0;
#X connect 7 0 1 0;
#X connect 8 0 3 0;
#X connect 9 0 7 0;
#X connect 9 1 7 0;
#X restore 479 -62 pd flush-stuck-notes;
#X text 795 -181 beat clock \, events \, controls in;
#X text 794 -170 events and status out;
#X text 981 -228 start on top of next beat;
#X text 702 -267 arm recording;
#X obj 666 -267 bng 15 250 50 0 empty empty empty 17 7 0 10 -262144
-1 -1;
#X obj 666 -245 t b b;
#N canvas 22 50 885 660 wait-for-first-sixteenth 0;
#X obj 53 53 inlet;
#X text 109 52 notes;
#X obj 209 52 inlet;
#X text 265 51 sixteenth notes;
#X obj 429 48 inlet;
#X text 485 47 arm;
#X obj 172 301 spigot 0;
#X obj 182 433 bag;
#X msg 218 380 flush;
#X msg 133 451 1;
#X msg 236 452 0;
#X obj 155 637 outlet;
#X msg 451 141 0;
#X obj 419 106 t b b b;
#X msg 414 139 1;
#X obj 171 340 t b b b b;
#X msg 284 326 0;
#X obj 183 526 spigot;
#X obj 86 519 spigot;
#X obj 182 496 pack 0 101;
#N canvas 505 261 450 300 once 0;
#X obj 102 42 inlet;
#X obj 211 67 inlet;
#X obj 118 215 outlet;
#X obj 114 137 == 1;
#X obj 114 115 i 0;
#X obj 114 162 sel 1;
#X obj 114 184 t b b;
#X msg 166 152 0;
#X msg 203 92 1;
#X text 260 68 reset;
#X obj 100 79 bang;
#X connect 0 0 10 0;
#X connect 1 0 8 0;
#X connect 3 0 5 0;
#X connect 4 0 3 0;
#X connect 5 0 6 0;
#X connect 6 0 2 0;
#X connect 6 1 7 0;
#X connect 7 0 4 1;
#X connect 8 0 4 1;
#X connect 10 0 4 0;
#X restore 219 196 pd once;
#X msg 219 243 1;
#X text 394 247 upon arming the sequencer \, we wait for the first
arp tick (sixteenth note) to start the recording. after that \, notes
pass through normally.;
#X obj 131 134 stripnote;
#X obj 84 98 t a a;
#X obj 151 164 bang;
#X connect 0 0 18 0;
#X connect 0 0 24 0;
#X connect 2 0 6 0;
#X connect 4 0 13 0;
#X connect 6 0 15 0;
#X connect 7 0 19 0;
#X connect 8 0 7 0;
#X connect 9 0 18 1;
#X connect 10 0 17 1;
#X connect 12 0 18 1;
#X connect 13 0 20 1;
#X connect 13 1 14 0;
#X connect 13 2 12 0;
#X connect 14 0 17 1;
#X connect 15 0 9 0;
#X connect 15 1 10 0;
#X connect 15 2 16 0;
#X connect 15 3 8 0;
#X connect 16 0 6 1;
#X connect 17 0 11 0;
#X connect 18 0 11 0;
#X connect 19 0 17 0;
#X connect 20 0 21 0;
#X connect 21 0 6 1;
#X connect 23 0 25 0;
#X connect 24 0 7 0;
#X connect 24 1 23 0;
#X connect 25 0 20 0;
#X restore 507 -212 pd wait-for-first-sixteenth;
#X obj 340 -448 t f f;
#X obj 340 -497 r beat-clock;
#X obj 340 -409 sel 0 90 180 270;
#X obj 340 -375 t b;
#X text 390 -443 send beat clock to the sequencer BEFORE arper;
#X msg 926 -483 1;
#X obj 962 -563 list;
#X obj 1270 -607 r rackSavePreset;
#X obj 1118 -461 print sequence;
#X obj 1277 -466 print sequence;
#N canvas 100 596 803 448 presetDir 0;
#X obj 88 153 s rackMsgs;
#X obj 88 106 symbol \$1;
#X msg 88 128 getsetting currentPreset Defaut rackCurrentPreset-\$1
;
#X obj 88 181 r rackCurrentPreset;
#X obj 215 181 r rackCurrentPreset-\$1;
#X obj 87 215 symbol \$1;
#X obj 442 163 s rackMsgs;
#X obj 442 113 symbol \$1;
#X obj 204 50 r loadbang-\$1;
#X obj 442 186 r rackDataDir;
#X obj 535 189 r rackDataDir-\$1;
#X msg 442 138 getsetting dataDir ./data rackDataDir-\$1;
#X obj 441 219 symbol \$1;
#X obj 249 276 pack s s s;
#X obj 255 210 symbol \$1;
#X obj 205 76 t b b b;
#X obj 444 71 bng 15 250 50 0 empty empty empty 17 7 0 10 -262144 -1
-1;
#X obj 71 67 bng 15 250 50 0 empty empty empty 17 7 0 10 -262144 -1
-1;
#X obj 114 243 t b b s;
#X obj 255 232 t b s;
#X obj 111 387 outlet;
#X obj 219 386 outlet;
#X text 81 25 track preset directory and bang on change;
#X connect 1 0 2 0;
#X connect 2 0 0 0;
#X connect 3 0 5 0;
#X connect 4 0 5 0;
#X connect 5 0 18 0;
#X connect 7 0 11 0;
#X connect 8 0 15 0;
#X connect 9 0 12 0;
#X connect 10 0 12 0;
#X connect 11 0 6 0;
#X connect 12 0 13 0;
#X connect 13 0 21 0;
#X connect 14 0 19 0;
#X connect 15 0 1 0;
#X connect 15 1 14 0;
#X connect 15 2 7 0;
#X connect 16 0 7 0;
#X connect 17 0 1 0;
#X connect 18 0 20 0;
#X connect 18 1 13 0;
#X connect 18 2 13 1;
#X connect 19 0 13 0;
#X connect 19 1 13 2;
#X restore 965 -625 pd presetDir;
#X msg 991 -508 read \$1/presets/\$2/\$3-sequence.txt;
#X msg 1214 -507 write \$1/presets/\$2/\$3-sequence.txt;
#N canvas 103 262 721 484 savePreset 0;
#X obj 343 124 r saveState;
#X obj 252 232 list;
#X obj 146 127 unpack s s s;
#X obj 251 167 pack s s s;
#X obj 272 127 symbol \$1;
#X obj 113 96 list;
#X obj 233 101 t b b a b;
#X obj 106 54 inlet;
#X obj 258 286 outlet;
#X obj 229 39 inlet;
#X connect 0 0 1 0;
#X connect 1 0 8 0;
#X connect 2 0 3 0;
#X connect 2 2 3 2;
#X connect 3 0 1 1;
#X connect 4 0 3 1;
#X connect 5 0 2 0;
#X connect 6 0 1 0;
#X connect 6 1 3 0;
#X connect 6 2 4 0;
#X connect 6 3 5 0;
#X connect 7 0 5 1;
#X connect 9 0 6 0;
#X restore 1195 -579 pd savePreset;
#X obj 620 -60 s seqarp-\$1-status;
#X obj 570 -90 t a a;
#X obj 478 -121 seq \$1;
#X obj 963 -540 t b b l;
#X obj 926 -461 s seqarp-\$1-something-recorded;
#X obj 317 355 r \$0-punchy-tick;
#X obj 340 -348 s \$0-punchy-tick;
#X obj 268 107 t a;
#X obj 555 -257 r \$0-punchy-tick;
#X obj 107 -492 r punchy-\$1-notes-in;
#X obj 691 679 s \$0-state;
#X obj 844 501 t b b l;
#X msg 693 597 2;
#X obj 667 556 t b b b;
#X msg 676 461 60 100;
#X msg 633 462 60 0;
#X connect 0 0 15 0;
#X connect 1 0 19 0;
#X connect 2 0 1 0;
#X connect 4 0 0 0;
#X connect 5 0 0 0;
#X connect 6 0 2 0;
#X connect 7 0 2 0;
#X connect 8 0 4 0;
#X connect 8 1 5 0;
#X connect 8 2 11 0;
#X connect 9 0 6 0;
#X connect 9 1 7 0;
#X connect 9 2 10 0;
#X connect 10 0 2 0;
#X connect 11 0 0 0;
#X connect 12 0 35 0;
#X connect 12 1 39 0;
#X connect 13 0 20 0;
#X connect 13 1 20 1;
#X connect 15 0 19 0;
#X connect 15 1 31 0;
#X connect 15 2 32 0;
#X connect 19 0 13 0;
#X connect 19 1 13 1;
#X connect 20 0 21 0;
#X connect 22 0 1 2;
#X connect 23 0 1 1;
#X connect 24 0 28 0;
#X connect 25 0 27 0;
#X connect 25 1 24 0;
#X connect 25 2 26 0;
#X connect 26 0 28 0;
#X connect 27 0 28 0;
#X connect 28 0 23 1;
#X connect 29 0 25 0;
#X connect 30 0 9 0;
#X connect 33 0 8 0;
#X connect 34 0 12 0;
#X connect 36 0 13 2;
#X connect 39 0 35 1;
#X connect 40 0 92 0;
#X connect 42 0 47 0;
#X connect 43 0 41 0;
#X connect 43 0 46 0;
#X connect 44 0 47 0;
#X connect 45 0 41 0;
#X connect 45 0 46 0;
#X connect 48 0 50 1;
#X connect 49 0 40 0;
#X connect 49 1 50 0;
#X connect 49 1 40 1;
#X connect 50 0 43 0;
#X connect 50 0 44 0;
#X connect 51 0 52 0;
#X connect 53 0 51 0;
#X connect 55 0 83 2;
#X connect 56 0 83 2;
#X connect 57 0 83 1;
#X connect 58 0 83 2;
#X connect 64 0 65 0;
#X connect 65 0 66 2;
#X connect 65 1 56 0;
#X connect 66 0 57 0;
#X connect 67 0 69 0;
#X connect 67 1 83 0;
#X connect 68 0 67 0;
#X connect 69 0 70 0;
#X connect 69 1 70 0;
#X connect 69 2 70 0;
#X connect 69 3 70 0;
#X connect 70 0 87 0;
#X connect 72 0 85 0;
#X connect 73 0 84 0;
#X connect 74 0 80 1;
#X connect 77 0 73 0;
#X connect 77 1 73 1;
#X connect 77 1 80 0;
#X connect 78 0 75 0;
#X connect 78 0 83 2;
#X connect 79 0 76 0;
#X connect 79 0 83 2;
#X connect 80 0 79 0;
#X connect 82 0 59 1;
#X connect 82 1 81 0;
#X connect 83 0 59 0;
#X connect 83 1 82 0;
#X connect 84 1 72 0;
#X connect 84 2 78 0;
#X connect 86 0 1 3;
#X connect 88 0 23 0;
#X connect 88 0 15 1;
#X connect 89 0 66 1;
#X connect 90 0 88 0;
#X connect 92 0 94 0;
#X connect 92 1 53 0;
#X connect 92 2 42 0;
#X connect 92 2 45 0;
#X connect 93 0 91 0;
#X connect 94 0 96 0;
#X connect 94 1 95 0;
#X connect 94 2 93 0;
#X connect 95 0 88 0;
#X connect 96 0 88 0;
#X restore 301 337 pd sequencer;
#X obj 304 285 s punchy-\$1-notes-in;
#X obj 299 445 r punchy-\$1-notes-out;
#X obj 464 243 s punchy-\$1-aux-in;
#X obj 926 182 r punchy-\$1-led;
#X obj 760 182 r punchy-\$1-aux-label;
#X obj 760 203 s aux-label-\$1;
#X obj 926 203 s aux-led-\$1;
#X obj 304 207 list split 2;
#X obj 299 466 list append 0;
#X obj 587 295 r ctrlIn-\$1;
#X obj 587 321 s ctrlOut-\$1;
#X connect 0 0 17 0;
#X connect 6 0 12 0;
#X connect 11 0 18 0;
#X connect 13 0 16 0;
#X connect 14 0 15 0;
#X connect 17 0 10 0;
#X connect 18 0 1 0;
