#N canvas 173 50 1005 608 10;
#X obj 304 186 r notesIn-\$1;
#X obj 304 490 s notesOut-\$1;
#X obj 410 7 r loadbang-\$1;
#X obj 25 186 inlet~ inL-\$1;
#X obj 135 186 inlet~ inR-\$1;
#X obj 27 491 outlet~ outL-\$1;
#X obj 136 491 outlet~ outR-\$1;
#X obj 487 182 r auxIn-\$1;
#X obj 486 331 r expIn-\$1;
#X obj 486 356 r fsIn-\$1;
#N canvas 205 83 1602 910 sequencer 1;
#X obj 383 63 sel 1;
#N canvas 529 128 1387 916 latch 0;
#X obj 263 252 tgl 15 0 empty empty empty 17 7 0 10 -262144 -1 -1 0
1;
#X obj 133 368 spigot 1;
#X obj 43 368 spigot 0;
#X obj 263 278 == 0;
#X obj 263 368 sel 0 1;
#X obj 263 106 inlet;
#X obj 43 626 outlet;
#X obj 43 106 inlet;
#X text 311 105 bang enable / disables latch;
#X text 44 53 incoming notes get sent through latch if enabled \, or
directly to output if disabled;
#X text 323 367 Update Screen & LED;
#X obj 309 316 b;
#X obj 43 421 latch-notes;
#X obj 263 160 t f b, f 7;
#X obj 262 496 t b b;
#X obj 439 496 t b b;
#X obj 312 674 s aux-label-\$1;
#X msg 263 579 Aux: Latch ON \;;
#X msg 487 579 Aux: Latch OFF \;;
#X obj 495 679 s aux-led-\$1;
#X msg 487 534 0;
#X msg 289 534 2;
#X connect 0 0 3 0;
#X connect 0 0 2 1;
#X connect 1 0 6 0;
#X connect 2 0 12 0;
#X connect 3 0 1 1;
#X connect 3 0 4 0;
#X connect 4 0 14 0;
#X connect 4 1 15 0;
#X connect 5 0 13 0;
#X connect 7 0 2 0;
#X connect 7 0 1 0;
#X connect 11 0 12 1;
#X connect 12 0 6 0;
#X connect 13 0 0 0;
#X connect 13 1 11 0;
#X connect 14 1 21 0;
#X connect 14 1 17 0;
#X connect 15 1 20 0;
#X connect 15 1 18 0;
#X restore 175 108 pd latch;
#X obj 174 -57 r arper-\$1-notes-in;
#X obj 383 -63 r arper-\$1-aux-in;
#X text 119 -121 notes are put into an array and then sorted in increasing
/ decreasing order. the 'arp' subpatch then counts through the arrays
in various patterns. This is the Module conversion of Arpeggio Synth.
;
#X obj 175 43 spigot;
#X msg 214 -12 0;
#X msg 250 12 1;
#X obj 214 -34 r arper-\$1-disable;
#X obj 250 -10 r arper-\$1-enable;
#X obj 93 76 bag;
#X msg 93 26 flush;
#X obj 383 41 spigot;
#X msg 422 -14 0;
#X msg 458 10 1;
#X obj 422 -36 r arper-\$1-disable;
#X obj 458 -12 r arper-\$1-enable;
#X obj 102 108 pack 0 0;
#X msg 286 12 0;
#X obj 228 85 tgl 15 0 empty empty empty 17 7 0 10 -262144 -1 -1 0
1;
#X msg 944 474 stop;
#X msg 819 486 arm;
#X obj 607 461 seq-format-event note;
#X msg 1040 474 play-sync;
#N canvas 10 50 468 388 flush-stuck-notes 0;
#X obj 167 212 bag;
#X msg 203 161 flush;
#X msg 160 254 \$1 0;
#X obj 124 157 t a a;
#X obj 137 354 outlet;
#X obj 101 22 inlet;
#X obj 258 20 inlet;
#X obj 238 107 bang;
#X obj 114 102 route note;
#X obj 248 61 route end stop;
#X connect 0 0 2 0;
#X connect 1 0 0 0;
#X connect 2 0 4 0;
#X connect 3 0 4 0;
#X connect 3 1 0 0;
#X connect 5 0 8 0;
#X connect 6 0 9 0;
#X connect 7 0 1 0;
#X connect 8 0 3 0;
#X connect 9 0 7 0;
#X connect 9 1 7 0;
#X restore 605 639 pd flush-stuck-notes;
#X text 921 520 beat clock \, events \, controls in;
#X text 921 534 events and status out;
#X text 1107 473 start on top of next beat;
#X text 828 434 arm recording;
#X obj 792 434 bng 15 250 50 0 empty empty empty 17 7 0 10 -262144
-1 -1;
#X obj 792 456 t b b;
#X obj 466 204 r beat-clock;
#X obj 176 134 t a;
#X msg 1052 218 1;
#X obj 1088 138 list;
#X obj 1396 94 r rackSavePreset;
#X obj 1244 240 print sequence;
#X obj 1403 235 print sequence;
#N canvas 100 596 803 448 presetDir 0;
#X obj 88 153 s rackMsgs;
#X obj 88 106 symbol \$1;
#X msg 88 128 getsetting currentPreset Defaut rackCurrentPreset-\$1
;
#X obj 88 181 r rackCurrentPreset;
#X obj 215 181 r rackCurrentPreset-\$1;
#X obj 87 215 symbol \$1;
#X obj 442 163 s rackMsgs;
#X obj 442 113 symbol \$1;
#X obj 204 50 r loadbang-\$1;
#X obj 442 186 r rackDataDir;
#X obj 535 189 r rackDataDir-\$1;
#X msg 442 138 getsetting dataDir ./data rackDataDir-\$1;
#X obj 441 219 symbol \$1;
#X obj 249 276 pack s s s;
#X obj 255 210 symbol \$1;
#X obj 205 76 t b b b;
#X obj 444 71 bng 15 250 50 0 empty empty empty 17 7 0 10 -262144 -1
-1;
#X obj 71 67 bng 15 250 50 0 empty empty empty 17 7 0 10 -262144 -1
-1;
#X obj 114 243 t b b s;
#X obj 255 232 t b s;
#X obj 111 387 outlet;
#X obj 219 386 outlet;
#X text 81 25 track preset directory and bang on change;
#X connect 1 0 2 0;
#X connect 2 0 0 0;
#X connect 3 0 5 0;
#X connect 4 0 5 0;
#X connect 5 0 18 0;
#X connect 7 0 11 0;
#X connect 8 0 15 0;
#X connect 9 0 12 0;
#X connect 10 0 12 0;
#X connect 11 0 6 0;
#X connect 12 0 13 0;
#X connect 13 0 21 0;
#X connect 14 0 19 0;
#X connect 15 0 1 0;
#X connect 15 1 14 0;
#X connect 15 2 7 0;
#X connect 16 0 7 0;
#X connect 17 0 1 0;
#X connect 18 0 20 0;
#X connect 18 1 13 0;
#X connect 18 2 13 1;
#X connect 19 0 13 0;
#X connect 19 1 13 2;
#X restore 1091 76 pd presetDir;
#X msg 1117 193 read \$1/presets/\$2/\$3-sequence.txt;
#X msg 1340 194 write \$1/presets/\$2/\$3-sequence.txt;
#N canvas 103 262 721 484 savePreset 0;
#X obj 343 124 r saveState;
#X obj 252 232 list;
#X obj 146 127 unpack s s s;
#X obj 251 167 pack s s s;
#X obj 272 127 symbol \$1;
#X obj 113 96 list;
#X obj 233 101 t b b a b;
#X obj 106 54 inlet;
#X obj 258 286 outlet;
#X obj 229 39 inlet;
#X connect 0 0 1 0;
#X connect 1 0 8 0;
#X connect 2 0 3 0;
#X connect 2 2 3 2;
#X connect 3 0 1 1;
#X connect 4 0 3 1;
#X connect 5 0 2 0;
#X connect 6 0 1 0;
#X connect 6 1 3 0;
#X connect 6 2 4 0;
#X connect 6 3 5 0;
#X connect 7 0 5 1;
#X connect 9 0 6 0;
#X restore 1321 122 pd savePreset;
#X obj 232 209 r seqarp-\$1-notes-in;
#X obj 592 845 s seqarp-\$1-notes-out;
#X obj 811 201 r seqarp-\$1-aux-in;
#X obj 792 411 r seqarp-\$1-recenable;
#X obj 944 448 r seqarp-\$1-stop;
#X obj 1065 447 r seqarp-\$1-start;
#X obj 746 641 s seqarp-\$1-status;
#X obj 696 611 t a a;
#X obj 604 580 seq \$1;
#X obj 1089 161 t b b l;
#X text 974 261 bang right to start;
#N canvas 84 99 1493 885 seq-button-control 0;
#X obj 232 262 f;
#X obj 232 209 sel 1;
#X floatatom 42 271 5 0 0 0 - - -;
#X obj 42 302 sel 1;
#X obj 42 328 bng 15 250 50 0 empty empty empty 17 7 0 10 -262144 -1
-1;
#X obj 42 475 sel 0 1 2 3, f 54;
#X obj 42 550 t b b;
#X msg 74 585 1;
#X obj 135 526 t b b;
#X msg 159 547 0;
#X msg 315 334 2;
#X obj 217 169 t f f;
#X obj 232 288 sel 1;
#X obj 284 262 bng 15 250 50 0 empty empty empty 17 7 0 10 -262144
-1 -1;
#X obj 229 527 t b b;
#X msg 273 557 0;
#X obj 323 530 t b b b;
#X msg 406 556 1;
#X obj 232 316 t b b b;
#X msg 791 265 Sequencer: Playing;
#X msg 939 265 Sequencer: Stopped;
#X msg 1094 265 Sequencer: Enabled;
#X msg 1248 264 Sequencer: Recording;
#X text 662 62 states are: 0 = stopped \, 1 = playing \, 2 = rec enabled
\, 3 = recording, f 70;
#X text 825 151 Controls LED & Screen Infomation:;
#X obj 232 234 del 500;
#X text 19 10 Controls State With Aux Button;
#X obj 611 540 t b b;
#X obj 674 634 sel 0 1 2 3, f 33;
#X obj 674 586 delay 100;
#X text 675 543 Flashes LED at loop & sets color after sequence stop
;
#X msg 674 661 0;
#X msg 788 661 6;
#X msg 611 584 7;
#X obj 46 33 inlet;
#X msg 947 289 0;
#X msg 1097 291 6;
#X obj 975 383 s aux-label-\$1;
#X obj 1159 380 s aux-led-\$1;
#X obj 42 361 v seqarp-\$1-state;
#X obj 255 381 s seqarp-\$1-stop;
#X obj 315 356 v seqarp-\$1-state;
#X obj 232 408 s seqarp-\$1-recenable;
#X obj 42 659 s seqarp-\$1-start;
#X obj 81 608 v seqarp-\$1-state;
#X obj 135 627 s seqarp-\$1-stop;
#X obj 159 569 v seqarp-\$1-state;
#X obj 241 624 s seqarp-\$1-stop;
#X obj 273 579 v seqarp-\$1-state;
#X obj 347 631 s seqarp-\$1-start;
#X obj 370 603 s seqarp-\$1-end_seq;
#X obj 406 578 v seqarp-\$1-state;
#X obj 791 179 r seqarp-\$1-start;
#X obj 939 182 r seqarp-\$1-stop;
#X obj 1094 180 r seqarp-\$1-recenable;
#X obj 1248 179 r seqarp-\$1-record;
#X obj 674 703 s aux-led-\$1;
#X obj 674 610 v seqarp-\$1-state;
#X obj 598 179 r seqarp-\$1-status;
#X obj 665 345 t b;
#X obj 665 345;
#X obj 665 324 route end rec;
#X obj 714 402 t b b;
#X obj 753 460 v seqarp-\$1-state;
#X msg 746 437 3;
#X obj 714 511 s seqarp-\$1-record;
#X floatatom 935 675 5 0 0 0 - - -;
#X msg 731 660 4;
#X msg 845 661 3;
#X msg 1239 298 3;
#X msg 831 305 4;
#X obj 508 37 inlet start;
#X obj 474 195 t b b;
#X msg 506 230 1;
#X obj 474 304 s seqarp-\$1-start;
#X obj 513 253 v seqarp-\$1-state;
#X text 328 274 press and hold;
#X connect 0 0 12 0;
#X connect 1 0 25 0;
#X connect 2 0 3 0;
#X connect 3 0 4 0;
#X connect 4 0 39 0;
#X connect 5 0 6 0;
#X connect 5 1 8 0;
#X connect 5 2 14 0;
#X connect 5 3 16 0;
#X connect 6 0 43 0;
#X connect 6 1 7 0;
#X connect 7 0 44 0;
#X connect 8 0 45 0;
#X connect 8 1 9 0;
#X connect 9 0 46 0;
#X connect 10 0 41 0;
#X connect 11 0 1 0;
#X connect 11 1 0 1;
#X connect 12 0 18 0;
#X connect 14 0 47 0;
#X connect 14 1 15 0;
#X connect 15 0 48 0;
#X connect 16 0 49 0;
#X connect 16 1 50 0;
#X connect 16 2 17 0;
#X connect 17 0 51 0;
#X connect 18 0 42 0;
#X connect 18 1 40 0;
#X connect 18 2 10 0;
#X connect 19 0 37 0;
#X connect 20 0 37 0;
#X connect 21 0 37 0;
#X connect 22 0 37 0;
#X connect 25 0 0 0;
#X connect 25 0 13 0;
#X connect 27 0 33 0;
#X connect 27 1 29 0;
#X connect 28 0 31 0;
#X connect 28 1 67 0;
#X connect 28 2 32 0;
#X connect 28 3 68 0;
#X connect 29 0 57 0;
#X connect 31 0 56 0;
#X connect 32 0 56 0;
#X connect 33 0 56 0;
#X connect 34 0 2 0;
#X connect 34 0 11 0;
#X connect 35 0 38 0;
#X connect 36 0 38 0;
#X connect 39 0 5 0;
#X connect 52 0 19 0;
#X connect 52 0 70 0;
#X connect 53 0 20 0;
#X connect 53 0 35 0;
#X connect 54 0 21 0;
#X connect 54 0 36 0;
#X connect 55 0 22 0;
#X connect 55 0 69 0;
#X connect 57 0 28 0;
#X connect 58 0 61 0;
#X connect 59 0 27 0;
#X connect 61 0 59 0;
#X connect 61 0 60 0;
#X connect 61 1 62 0;
#X connect 62 0 65 0;
#X connect 62 1 64 0;
#X connect 64 0 63 0;
#X connect 66 0 56 0;
#X connect 67 0 56 0;
#X connect 68 0 56 0;
#X connect 69 0 38 0;
#X connect 70 0 38 0;
#X connect 71 0 72 0;
#X connect 72 0 74 0;
#X connect 72 1 73 0;
#X connect 73 0 75 0;
#X restore 834 261 pd seq-button-control;
#X obj 1052 240 s seqarp-\$1-something-recorded;
#X obj 565 248 r seq_speed_factor-\$1;
#X floatatom 565 269 5 0 0 0 - - -;
#X obj 468 410 * 1;
#X floatatom 644 284 5 0 0 0 - - -;
#X obj 468 459 clockfix;
#X obj 476 268 t f f;
#X obj 468 434 % 360;
#X connect 0 0 19 0;
#X connect 1 0 32 0;
#X connect 2 0 5 0;
#X connect 3 0 12 0;
#X connect 5 0 1 0;
#X connect 5 0 10 0;
#X connect 6 0 5 1;
#X connect 6 0 19 0;
#X connect 7 0 5 1;
#X connect 8 0 6 0;
#X connect 8 0 11 0;
#X connect 9 0 7 0;
#X connect 9 0 18 0;
#X connect 10 0 17 0;
#X connect 11 0 10 0;
#X connect 12 0 0 0;
#X connect 13 0 12 1;
#X connect 14 0 12 1;
#X connect 15 0 13 0;
#X connect 16 0 14 0;
#X connect 17 0 32 0;
#X connect 18 0 19 0;
#X connect 19 0 1 1;
#X connect 20 0 50 3;
#X connect 21 0 50 3;
#X connect 22 0 50 2;
#X connect 23 0 50 3;
#X connect 24 0 43 0;
#X connect 29 0 30 0;
#X connect 30 1 21 0;
#X connect 31 0 60 0;
#X connect 33 0 54 0;
#X connect 34 0 51 0;
#X connect 35 0 41 1;
#X connect 38 0 34 0;
#X connect 38 1 34 1;
#X connect 38 1 41 0;
#X connect 39 0 36 0;
#X connect 39 0 50 3;
#X connect 40 0 37 0;
#X connect 40 0 50 3;
#X connect 41 0 40 0;
#X connect 42 0 22 0;
#X connect 42 0 43 0;
#X connect 44 0 53 0;
#X connect 45 0 29 0;
#X connect 46 0 20 0;
#X connect 47 0 23 0;
#X connect 49 0 24 1;
#X connect 49 1 48 0;
#X connect 50 0 24 0;
#X connect 50 1 49 0;
#X connect 51 0 53 1;
#X connect 51 1 33 0;
#X connect 51 2 39 0;
#X connect 55 0 56 0;
#X connect 56 0 57 1;
#X connect 57 0 61 0;
#X connect 59 0 50 0;
#X connect 60 0 57 0;
#X connect 60 1 50 1;
#X connect 61 0 59 0;
#X restore 304 341 pd sequencer;
#X obj 651 222 r ctrlIn-\$1;
#X obj 651 249 s ctrlOut-\$1;
#X obj 304 207 list split 2;
#X obj 304 463 list append 0;
#X obj 304 293 s seqarp-\$1-notes-in;
#X obj 487 288 s seqarp-\$1-aux-in;
#X obj 304 442 r seqarp-\$1-notes-out;
#X obj 411 45 s seqarp-\$1-enable;
#X connect 0 0 13 0;
#X connect 2 0 18 0;
#X connect 7 0 16 0;
#X connect 13 0 15 0;
#X connect 14 0 1 0;
#X connect 17 0 14 0;
