#N canvas 233 67 1192 713 10;
#X obj 304 186 r notesIn-\$1;
#X obj 304 490 s notesOut-\$1;
#X obj 25 186 inlet~ inL-\$1;
#X obj 135 186 inlet~ inR-\$1;
#X obj 27 491 outlet~ outL-\$1;
#X obj 136 491 outlet~ outR-\$1;
#X obj 487 182 r auxIn-\$1;
#X obj 486 331 r expIn-\$1;
#X obj 486 356 r fsIn-\$1;
#X obj 651 222 r ctrlIn-\$1;
#X obj 651 309 s ctrlOut-\$1;
#X obj 487 288 s metro-\$1-aux-in;
#N canvas 162 161 1107 634 metro 0;
#X obj 291 33 r beat-clock;
#X obj 204 367 bng 15 250 50 0 empty empty empty 17 7 0 10 -262144
-1 -1;
#X obj 276 367 r loadbang-\$1;
#X obj 221 296 sel 0;
#X obj 212 537 outlet~;
#X obj 369 205 spigot 0;
#X obj 442 44 r metro-\$1-aux-in;
#X obj 413 132 tgl 15 0 empty empty empty 17 7 0 10 -262144 -1 -1 1
1;
#X obj 454 102 sel 1;
#X obj 203 415 sampler-voice metro1.wav \$1;
#X floatatom 598 238 5 0 0 0 - - -;
#X obj 598 258 s \$1-samp-speed;
#X obj 646 150 r metro_tone-\$1;
#X obj 648 195 / 100;
#X obj 540 334 r metro_level-\$1;
#X obj 540 375 / 100;
#X floatatom 540 411 5 0 0 0 - - -;
#X obj 210 472 *~;
#X obj 517 455 lop~ 1;
#X obj 540 431 sig~;
#X connect 0 0 5 0;
#X connect 1 0 9 0;
#X connect 2 0 9 1;
#X connect 3 0 1 0;
#X connect 5 0 3 0;
#X connect 6 0 8 0;
#X connect 7 0 5 1;
#X connect 8 0 7 0;
#X connect 9 0 17 0;
#X connect 10 0 11 0;
#X connect 12 0 13 0;
#X connect 13 0 10 0;
#X connect 14 0 15 0;
#X connect 15 0 16 0;
#X connect 16 0 19 0;
#X connect 17 0 4 0;
#X connect 18 0 17 1;
#X connect 19 0 18 0;
#X restore 121 414 pd metro;
#X connect 6 0 11 0;
#X connect 12 0 4 0;
#X connect 12 0 5 0;
