#N canvas 143 113 1723 877 10;
#X obj 235 186 r notesIn-\$1;
#X obj 244 491 s notesOut-\$1;
#X obj 577 147 r loadbang-\$1;
#X obj 25 186 inlet~ inL-\$1;
#X obj 135 186 inlet~ inR-\$1;
#X obj 27 491 outlet~ outL-\$1;
#X obj 136 491 outlet~ outR-\$1;
#X obj 424 185 r auxIn-\$1;
#X obj 423 208 r expIn-\$1;
#X obj 423 233 r fsIn-\$1;
#X msg 576 170 1;
#X text 532 38 always running. mute incoming BPM to turn off in other
Modules;
#X obj 839 384 s master-bpm;
#X obj 641 543 i;
#X obj 491 542 i;
#X obj 817 549 i;
#X obj 734 164 r c_bpm-\$1;
#X msg 650 711 Tempo 104 BPM LINK;
#X msg 641 619 set Tempo \$1 BPM MIDI \;;
#X msg 491 618 set Tempo \$1 BPM \;;
#X msg 817 625 set Tempo \$1 BPM LINK \;;
#X obj 641 581 t b f;
#X obj 491 580 t b f;
#X obj 817 587 t b f;
#X obj 650 764 s aux-label-\$1;
#X obj 836 345 f;
#X obj 833 318 r loadbang-global;
#X obj 416 299 r ctrlIn-\$1;
#X obj 416 325 s ctrlOut-\$1;
#X obj 651 263 metronome360;
#X text 1161 230 Master Metro Module. Only use one for each Modular
Patch. Sends 24 ticks per Beat (master-ticks). Sends a Beat count relative
to set time signature (master-beats). master-timeSig sends how many
beats in a measure to use in other modules. sends out beat-clock \,
a 360 count phase of the beat (0-359).;
#X obj 688 479 route 1 2 3;
#X obj 714 407 swap 1;
#X obj 402 410 s beat-clock;
#X obj 524 1166 s bpm;
#X obj 1260 390 s triplets;
#X obj 1263 415 s sixteenths;
#X obj 1262 340 s quarters;
#X obj 1258 367 s eighths;
#X obj 1214 679 midiout;
#X obj 1374 531 r c_midiout-\$1;
#X obj 1166 551 r midi-ticks;
#X msg 1166 577 248;
#X obj 1166 499 r midi-start;
#X obj 1220 580 r midi-cont;
#X msg 1220 602 251;
#X msg 1166 521 250;
#X obj 1297 501 r midi-stop;
#X msg 1297 523 252;
#X obj 564 347 t f f;
#X obj 552 460 s master-ticks;
#X obj 1220 645 spigot 0;
#X text 1230 458 clock and transport out;
#X floatatom 743 210 5 0 0 0 - - -;
#X obj 707 446 pack 0 0;
#X obj 405 463 print;
#X obj 564 405 i;
#X obj 564 426 change;
#X obj 564 384 / 15;
#X obj 324 59 t b b;
#X msg 338 129 1;
#X msg 304 133 0;
#X obj 324 80 delay 2000;
#X obj 222 102 spigot;
#X obj 213 129 print;
#X obj 319 24 bng 15 250 50 0 empty empty empty 17 7 0 10 -262144 -1
-1;
#X obj 385 13 r rackCurrentPreset;
#X obj 148 50 r pre-cf;
#X msg 154 74 X \$1;
#X msg 62 84 YYYYY \$1;
#X connect 2 0 10 0;
#X connect 10 0 29 0;
#X connect 13 0 21 0;
#X connect 14 0 22 0;
#X connect 15 0 23 0;
#X connect 16 0 29 1;
#X connect 16 0 53 0;
#X connect 17 0 24 0;
#X connect 18 0 17 0;
#X connect 19 0 17 0;
#X connect 20 0 17 0;
#X connect 21 0 17 0;
#X connect 21 1 18 0;
#X connect 22 0 17 0;
#X connect 22 1 19 0;
#X connect 23 0 17 0;
#X connect 23 1 20 0;
#X connect 25 0 12 0;
#X connect 26 0 25 0;
#X connect 29 0 49 0;
#X connect 29 1 25 0;
#X connect 29 1 32 0;
#X connect 29 2 32 1;
#X connect 31 0 14 0;
#X connect 31 1 13 0;
#X connect 31 2 15 0;
#X connect 32 0 54 0;
#X connect 32 1 54 1;
#X connect 40 0 51 1;
#X connect 41 0 42 0;
#X connect 42 0 51 0;
#X connect 43 0 46 0;
#X connect 44 0 45 0;
#X connect 45 0 51 0;
#X connect 46 0 51 0;
#X connect 47 0 48 0;
#X connect 48 0 51 0;
#X connect 49 0 33 0;
#X connect 49 0 69 0;
#X connect 49 1 58 0;
#X connect 51 0 39 0;
#X connect 54 0 31 0;
#X connect 56 0 57 0;
#X connect 57 0 50 0;
#X connect 58 0 56 0;
#X connect 59 0 62 0;
#X connect 59 1 60 0;
#X connect 60 0 63 1;
#X connect 61 0 63 1;
#X connect 62 0 61 0;
#X connect 63 0 64 0;
#X connect 65 0 59 0;
#X connect 66 0 65 0;
#X connect 67 0 68 0;
#X connect 68 0 63 0;
#X connect 69 0 63 0;
