#N canvas 143 113 1723 877 10;
#X obj 235 186 r notesIn-\$1;
#X obj 244 491 s notesOut-\$1;
#X obj 826 145 r loadbang-\$1;
#X obj 25 186 inlet~ inL-\$1;
#X obj 135 186 inlet~ inR-\$1;
#X obj 27 491 outlet~ outL-\$1;
#X obj 136 491 outlet~ outR-\$1;
#X obj 424 185 r auxIn-\$1;
#X obj 423 208 r expIn-\$1;
#X obj 423 233 r fsIn-\$1;
#X msg 827 172 1;
#X text 532 38 always running. mute incoming BPM to turn off in other
Modules;
#X obj 1088 382 s master-bpm;
#X obj 890 541 i;
#X obj 710 517 i;
#X obj 1066 547 i;
#X obj 983 162 r c_bpm-\$1;
#X msg 899 709 Tempo 80 BPM;
#X msg 890 617 set Tempo \$1 BPM MIDI \;;
#X msg 770 586 set Tempo \$1 BPM \;;
#X msg 1066 623 set Tempo \$1 BPM LINK \;;
#X obj 890 579 t b f;
#X obj 710 555 t b f;
#X obj 1066 585 t b f;
#X obj 899 762 s aux-label-\$1;
#X obj 1085 343 f;
#X obj 1082 316 r loadbang-global;
#X obj 416 299 r ctrlIn-\$1;
#X obj 416 325 s ctrlOut-\$1;
#X obj 937 477 route 1 2 3;
#X obj 963 405 swap 1;
#X obj 717 462 s beat-clock;
#X obj 590 739 s bpm;
#X obj 1308 690 midiout;
#X obj 1468 542 r c_midiout-\$1;
#X obj 1260 562 r midi-ticks;
#X msg 1260 588 248;
#X obj 1260 510 r midi-start;
#X obj 1314 591 r midi-cont;
#X msg 1314 613 251;
#X msg 1260 532 250;
#X obj 1391 512 r midi-stop;
#X msg 1391 534 252;
#X obj 813 345 t f f;
#X obj 801 458 s master-ticks;
#X obj 1314 656 spigot 0;
#X text 1298 477 clock and transport out;
#X obj 956 444 pack 0 0;
#X obj 813 403 i;
#X obj 813 424 change;
#X obj 813 382 / 15;
#X obj 900 261 metronome360 \$1;
#X text 1259 413 Master Metro Module. Only use one for each Modular
Patch. Sends 24 ticks per Beat (master-ticks). sends out beat-clock
\, a 360 count phase of the beat (0-359).;
#X obj 586 253 sel 1;
#X obj 586 274 tgl 15 0 empty empty empty 17 7 0 10 -262144 -1 -1 1
1;
#X obj 586 295 sel 0 1;
#X obj 552 346 s global-stop;
#X obj 644 344 s global-start;
#X text 633 740 ?;
#X obj 656 187 r rackCurrentPreset;
#X obj 656 211 t b;
#X msg 656 233 0;
#X text 703 222 stop on new preset;
#X connect 2 0 10 0;
#X connect 7 0 53 0;
#X connect 10 0 51 0;
#X connect 13 0 21 0;
#X connect 14 0 22 0;
#X connect 15 0 23 0;
#X connect 16 0 51 1;
#X connect 17 0 24 0;
#X connect 18 0 17 0;
#X connect 19 0 17 0;
#X connect 20 0 17 0;
#X connect 21 0 17 0;
#X connect 21 1 18 0;
#X connect 22 0 17 0;
#X connect 22 1 19 0;
#X connect 23 0 17 0;
#X connect 23 1 20 0;
#X connect 25 0 12 0;
#X connect 26 0 25 0;
#X connect 29 0 14 0;
#X connect 29 1 13 0;
#X connect 29 2 15 0;
#X connect 30 0 47 0;
#X connect 30 1 47 1;
#X connect 34 0 45 1;
#X connect 35 0 36 0;
#X connect 36 0 45 0;
#X connect 37 0 40 0;
#X connect 38 0 39 0;
#X connect 39 0 45 0;
#X connect 40 0 45 0;
#X connect 41 0 42 0;
#X connect 42 0 45 0;
#X connect 43 0 31 0;
#X connect 43 1 50 0;
#X connect 45 0 33 0;
#X connect 47 0 29 0;
#X connect 48 0 49 0;
#X connect 49 0 44 0;
#X connect 50 0 48 0;
#X connect 51 0 43 0;
#X connect 51 1 25 0;
#X connect 51 1 30 0;
#X connect 51 2 30 1;
#X connect 53 0 54 0;
#X connect 54 0 55 0;
#X connect 55 0 56 0;
#X connect 55 1 57 0;
#X connect 59 0 60 0;
#X connect 60 0 61 0;
#X connect 61 0 54 0;
